<svg xmlns="http://www.w3.org/2000/svg" width="400" height="400" viewBox="0 0 400 400">
  <g id="Group_1594" data-name="Group 1594" transform="translate(-8097 -12727)">
    <rect id="Rectangle_667" data-name="Rectangle 667" width="400" height="400" transform="translate(8097 12727)" fill="none"/>
    <g id="Group_1592" data-name="Group 1592" transform="translate(8075.65 12697.921)">
      <g id="Group_1582" data-name="Group 1582" transform="translate(46.35 63.079)">
        <path id="Path_1936" data-name="Path 1936" d="M198.346,136.035" transform="translate(-65.394 -72.22)" fill="none" stroke="#35494f" stroke-miterlimit="10" stroke-width="2" stroke-dasharray="4 4 4 4 4 4"/>
        <path id="Path_1937" data-name="Path 1937" d="M348.514,350.152c34.972-58.445,7.138-115.327,7.138-115.327s-31.522,29.686-48.587,96c-18.232,70.841-71.653,65.185-77.209,66.462S310.951,412.928,348.514,350.152Z" transform="translate(-69.31 -84.597)" fill="#009a90"/>
        <path id="Path_1938" data-name="Path 1938" d="M125.7,342.439C93.34,288.99,119.1,236.97,119.1,236.97s29.171,27.148,44.964,87.79c16.872,64.785,66.308,59.613,71.45,60.782S160.463,399.851,125.7,342.439Z" transform="translate(-54.247 -84.866)" fill="#00cabe"/>
        <g id="Group_1558" data-name="Group 1558" transform="translate(227.231 54.517)">
          <path id="Path_1939" data-name="Path 1939" d="M319.249,243.446l4.919,5.05,53.864-67.628,6.367,5.573,2.948-21.753-19.531,7.084,7.466,6.542Z" transform="translate(-307.773 -130.326)" fill="#ff8961"/>
          <path id="Path_1940" data-name="Path 1940" d="M306.129,221.154l5.98,6.14,65.485-82.219,7.741,6.775,3.584-26.446-23.745,8.613,9.077,7.954Z" transform="translate(-306.129 -125.404)" fill="#ff8961"/>
        </g>
        <circle id="Ellipse_181" data-name="Ellipse 181" cx="103.692" cy="103.692" r="103.692" transform="translate(71.455 73.923)" fill="#b5e6b8"/>
        <path id="Path_1941" data-name="Path 1941" d="M296.867,175.467a18.4,18.4,0,0,1,4.2-.627c8.938,8.025-1.946.944-4.1,4.143-1.135,1.63,1.132,3.369.057,4.794s-3.882-1.094-5.748-1.894C289.75,180.3,296.192,175.709,296.867,175.467ZM178.164,263.9a.363.363,0,0,0-.116-.179A.588.588,0,0,1,178.164,263.9Zm113.12-82.018a1.12,1.12,0,0,0,.312.238C292.256,182.331,291.747,182.082,291.284,181.883ZM181.913,192.328c.031-.679-.368-.24,0,0Zm125.341-11.455a103.243,103.243,0,0,1,28.238,71.083c0,3.2-4.395,3.544-5.714,10.328-.335,1.768-1.434,6.7-4.366,4.486-2.328-1.777-4.019-13.87-4.369-14.734-.966-2.377-.577-.49-2.635-2.038-1.2-.907-1.447-2.8-2.775-3.885-2.623-2.143-4.562.227-7.644-1.618-1.132-.678-3.311-3.108-4.194-1.642-.588.978,1.333,3.238,1.879,3.945,1.194,1.55,1.9.986,1.736,3.181-.651,8.932-22.044,11.271-16.229,14.151,1.821.9,3.523-1.722,5.663-.479,2.852,1.657-.82,8.633-2.7,11.06-.068.088-7.976,7.563-8.228,14.923-.127,3.911,1.12,7.564-1.258,11.441-.857,1.4-2.422,2.178-3.332,3.492-1.662,2.4-2.812,12.954-9.8,18.8-2.6,2.162-4.776,4.526-8,3.969s-2.45-2.746-3.2-5.6c-.792-2.989-1.716-5-2.143-8.169a49.617,49.617,0,0,0-2.2-7.983c-1.759-5.66,1.66-10.77.044-16.862-.838-3.117-3.571-5.615-3.5-8.952.029-1.45,1.566-3.886.834-5.336-.5-.979-2.156-.809-3.131-1.311-10.047-5.178-13.331.353-14.859.532-4.256.5-4.094-4.789-5.6-7.165-2.116-3.33-5.132-2.395-4.808-6.917.123-1.7.791-3.337.771-5.051-.024-2.025-2.316-5.675,2.246-11.63,10.923-14.256,6.241-13.554,5.344-16.1-1.4-4.017,1.441-6.891,4.677-8.5,1.61-.8,3.082.111,2.577-2.738a4.667,4.667,0,0,0-2.472-2.995c.922-1.044,1.351-1.917.854-3.118-.879-2.127-1.885-.765-3.127-1.177-2.943-.976-2.947-2.4-1.275-5.142.3-.491,1.431-.725,1.826-1.33.465-.713-.073-1.081.133-1.406,5.683-8.967,5.394,7.169,10.925,6.218,2.252-.387,3.652-2.547,4-4.431.455-2.434.227-.9-.791-2.665-4.859-8.466,4.9-9.871,7.107-12.212,1.4-1.488,1.692-3.763,3.32-4.917,7.183-5.109,19.168,3.743,22.486,4.263,1.726.273,1.554-.884,2.828-1.132a10.754,10.754,0,0,1,3.152.251c7.24.734,12.165-1.325,13.107-1.1.969.235,2.088,1.609,3.054,1.777C308.536,186.931,304.779,184.074,307.254,180.872Zm-46.543,22.647c4.172,1.116,2.232-4.488,5.707-4.008,2.583-.254-.131-2.694-.323-3.013-.179-.286-1.326-2.908-1.526-3.1-3.56-3.476-3.09,3.8-3.384,5.511C260.774,201.448,257.747,202.729,260.711,203.519ZM280.045,231.9c-.39-5.077-5.523.308-9.26-5.288-1-1.5-.853-3.217-2.65-1.341-1.2,1.251-.208,3.456-2.7,1.735-1.71-1.181-.9-2.917-3.527-2.862-.714.016-.409,1.582-1.652,1.343-.9-.175-.633-.848-1.312-1.246-5.749-3.366-4.143-4.461-7.347-4.583-5.1-.192-9.425,7.325-8.763,8.366.9,1.393,6.406-.858,8.071-.757,4.744.281,2.412,3.582,6.58,6.069,1.154.688,3,2.109,4.329,2.343,2.237.394,3.115-2.163,5.032-1.735C270.383,234.6,280.588,239,280.045,231.9Zm11.551-49.78a1.12,1.12,0,0,1-.312-.238C290.764,181.661,290.3,181.5,291.6,182.121Zm-71.923.91c.3-.545-.063-3.944.766-4.112,2.986.325,3.1-3.531,3.633-6.042.807-3.846,1.236-3.556,3.876-6.529,1.565-1.764,2.837-4.593.09-4.183-2.23.342-3.574,3.231-4.774.428-1.219-2.932.39-5.263-3.013-5.005-5.524.433-2.439-5.213-17.443,4.334-.122.077-.275-.722-.831-.287-.454.353-.549,1.171-.908,1.5-4.8,4.384-3.348.238-9.8,4.576a59.593,59.593,0,0,0-5.716,4.869c-1.917,1.662-5.082,2.276-4.934,4.2.287,3.272,9.358-.857,10.9,3.55.614,1.729-.472,4.258-.185,6.046.093.57.8.857.957,1.491.525,2.055-1.355,6.184,2.342,8.541,3.75,2.4,3.849,1.682,5.553-.176.281-.308.526-1.452.779-1.856.345-.553,1.029-.607,1.448-1.217,1.414-2.066.863-2.155,3.507-3.318,1.693-.745,2.958-1.888,4.444-2.645C212.135,186.287,218.635,184.881,219.673,183.031Zm3.493,7.487c3.961-.771,4.733-5.794-4.2-3.554-1.149.286-1.431-.756-2.309.975-1,1.956-.1,1.731.791,2.5C218.824,191.635,221.791,192.816,223.166,190.519Zm72.468,106.226c-1.872-1.486-6.572,3.525-7.513,5.558-.744,1.617-1.72,8.542-1.389,9.975C288.628,320.417,296.706,300.151,295.634,296.745Zm-76.671-109.78c-1.149.286-1.431-.756-2.309.975-1,1.956-.1,1.731.791,2.5,1.379,1.193,4.346,2.375,5.721.077C227.126,189.748,227.9,184.724,218.963,186.965ZM288.121,302.3c-.744,1.617-1.72,8.542-1.389,9.975,1.9,8.139,9.974-12.127,8.9-15.533C293.762,295.259,289.062,300.27,288.121,302.3Zm-100.21,43.483q-3.333-1.564-6.531-3.354c-4.429-9.149-2.284-5.84-2.869-8.831-.534-2.764-2.588-5.442-3.094-7.9-.267-1.315.414-2.388.227-3.7-.526-3.7-1.58-.764-2.557-13.626-.43-6.585-5.886-6.3-10.379-10.537-3.015-2.837-3.154-7.265-5.668-10.413-1.6-1.99-2.517-1.909-2.624-4.039-.034-.729.864-1.383.777-2.556-.121-1.67-.837-2.23-.567-3.982.625-3.816,3.045-2.537,5.069-5.2,2.98-3.86-4.83-3.708-6.735-4.686-2.845-1.469-1.03-3.675-6.054-6.008-1.7-.786-3.765-2.88-5.457-3.225-1.588-.324-2.154.469-3.691-.215-.867-.385-1.529-1.446-2.351-1.962-1.277-.8-3.26-1-4.383-1.941-6.56-5.427-.321-44.081,23.812-70.912,10.811-.185,10.712.226,13.024,0,1.8-.172,3.983-1.218,5.521-.9,1.992.415,3.256,1.867,5.436,2.23.967.161,2.312.043,2.9.779.689.857.351,2.207,1.222,3.005.813.76,5.9,2.775,1.052,4.335-1.266.405-1.837.336-2.079.177.031-.679-.368-.24,0,0a4.106,4.106,0,0,1-.148.831c-.443,1.712,1.177,1.267-1.016,2.887-2.635,1.937-4.045-.206-5.99-.827-2.391-.766-7.23,2.008-5.044-2.989.187-.425.769-.261,1.009-.632s-.216-.588-.071-.81c.591-.907,1.679-1.748,1.367-2.542-.332-.854-3.155-.563-4,.555.21-.283.36,1.221-.051,1.843-.3.449-2.362,1.779-2.567,2.35-.314.872,2.648.822,1.663,2.24-1.127,1.615-8.562,1-10.321,2-11.886,6.825,2.69,7.655,3.319,7.911.7.285.667,1.2,1.277,1.508,1.407.718.618.387,2.525-.456-.6.268,2.809-1.584,2.376-1.053,1.754-2.162-.757-1.8,1.015-5.276,4.447-8.693,9.788-.008,11.165-.2,1.435-.2,1.173-2.414,2.988-1.8,1.036.354,1.127,3.344,1.66,4.223.749,1.25,1.645,1.218,2.742,2.115.134.115,2.2,2.69,2.22,2.795.136,1.228-1.891,2.985-1.62,3.853.294.925,2.749.414,3.007,2.45.342,2.593-1.254,2.227-3.511,2.136-4.964-.2-3.7,4.047-8.646,5.165-.829.187-.939.492-1.734.461-.948-.038-.863-1.321-1.618-1.312-3.592.039-2.988,3.227-3.1,3.355-1.353,1.559-2.76,1.211-4.227,2.332-2.029,1.541-2.425,5.314-3.954,7.537-1.866,2.7-4.686,4.132-5.156,7.2-.3,1.916.486,7.351-2.614,3.184-1.386-1.865-1.86-4.408-5.327-3.877-.923.14-2.068,1.061-3.084,1.428-5.33,1.928-7.509.192-7.7,8.338-.039,1.7-.265,2.7,1.468,3.619,4.016,2.134,6.837-5.534,9.45-2.728,1.311,1.421-1.32,4.276-.6,5.729.839,1.717,2.788.457,4.272,1.761,2.663,2.341-2.375,7.112,3.152,8.211,9.244,1.842,3.058-6.439,12.916-3.3.224.072.555,1.287,1.055,1.475-.244-.092,1.732-.424,5.539-.381-.819-.01,2.276.77,2.165.26.536,1.109-1.581,1.865,2.411,4.591,1.26.861,2.7,1.013,4,1.753,3.569,2.038,3.84,4.039,5.792,7.1,3.5,5.464,16.208,3.46,17.027,11.958.312,3.133-2.257,6.631-3.114,9.351-.965,3.033-.2,6.969-1.293,9.876-.9,2.418-3.2,2.065-4.517,3.739-.932,1.191-.69,3.328-1.157,4.763-.625,1.917-1.9,3.407-2.684,5.177C187.367,338.713,185.727,339.445,187.911,345.786ZM157.877,185.739Zm-.015.047.015-.047Zm61.811-2.755c.3-.545-.063-3.944.766-4.112,2.986.325,3.1-3.531,3.633-6.042.807-3.846,1.236-3.556,3.876-6.529,1.565-1.764,2.837-4.593.09-4.183-2.23.342-3.574,3.231-4.774.428-1.219-2.932.39-5.263-3.013-5.005-4.007.314-3.27-3.2-11.425.444-2.367,1.063-4.075,2.654-6.018,3.891-.122.077-.275-.722-.831-.287-.392.305-1.4,3.276-3.945,3.615-6.233.841-7.934,3.4-12.476,7.328-1.917,1.662-5.082,2.276-4.934,4.2.287,3.272,9.358-.857,10.9,3.55.614,1.729-.472,4.258-.185,6.046.093.57.8.857.957,1.491.39,1.528-.353,3.74.09,5.275.941,3.3,4.852,5.006,5.856,4.764,1.8-.438,2.672-3.442,2.727-3.53.345-.553,1.029-.607,1.448-1.217,1.414-2.066.863-2.155,3.507-3.318,1.693-.745,2.958-1.888,4.444-2.645C212.135,186.287,218.635,184.881,219.673,183.031Zm-61.8,2.708Z" transform="translate(-56.653 -74.761)" fill="#c0edc3"/>
        <g id="Group_1559" data-name="Group 1559" transform="translate(56.455 152.104)">
          <path id="Path_1942" data-name="Path 1942" d="M111.136,301.577c6.531,73.418,108.419,22.721,131.972,94.113C190.227,409.965,118.721,385.2,111.136,301.577Z" transform="translate(-110.922 -245.065)" fill="#009a90"/>
          <path id="Path_1943" data-name="Path 1943" d="M243.077,387.595c-56.546,9.2-164.316-34.684-122.955-150.625" transform="translate(-110.892 -236.97)" fill="none" stroke="#00cabe" stroke-miterlimit="10" stroke-width="1"/>
        </g>
        <g id="Group_1560" data-name="Group 1560" transform="translate(152.574 152.917)">
          <path id="Path_1944" data-name="Path 1944" d="M363.387,305.471c-7.057,80.278-117.158,24.843-142.609,102.907C277.92,423.988,355.19,396.909,363.387,305.471Z" transform="translate(-220.778 -246.365)" fill="#00cabe"/>
          <path id="Path_1945" data-name="Path 1945" d="M220.778,399.912c61.1,10.064,177.116-35.236,132.423-162.013" transform="translate(-220.778 -237.899)" fill="none" stroke="#009a90" stroke-miterlimit="10" stroke-width="1"/>
        </g>
        <g id="Group_1561" data-name="Group 1561" transform="translate(137.307 0)">
          <path id="Path_1946" data-name="Path 1946" d="M252.178,63.079a32.676,32.676,0,0,0-16.54,20.86,30.972,30.972,0,0,0,5.1,25.942c6.165-3.439,13.972-13.186,14.8-27.182C255.914,76.372,254.056,69.471,252.178,63.079Z" transform="translate(-207.257 -63.079)" fill="#00cabe"/>
          <path id="Path_1947" data-name="Path 1947" d="M252.185,206.469c20.471-39-16.883-69.755-10.96-111.741" transform="translate(-207.992 -67.044)" fill="none" stroke="#009a90" stroke-miterlimit="10" stroke-width="2"/>
          <path id="Path_1948" data-name="Path 1948" d="M275.7,96.375a25.6,25.6,0,0,0-23.526,8.662c-5.535,6.778-6.827,16.871-3.343,24.374,4.131-.1,8.042-1.959,11.419-4.34C269.539,118.522,275.605,107.613,275.7,96.375Z" transform="translate(-208.784 -67.211)" fill="#00cabe"/>
          <path id="Path_1949" data-name="Path 1949" d="M250.565,145.994c-4.93-13.419,5.205-30.73,11.578-36.268" transform="translate(-209.079 -68.923)" fill="none" stroke="#009a90" stroke-miterlimit="10" stroke-width="2"/>
          <path id="Path_1950" data-name="Path 1950" d="M304.9,133.148a22.364,22.364,0,0,0-16.529-2.759,18.466,18.466,0,0,0-12.681,11.1,26.714,26.714,0,0,0,16.576,1.839C297.767,142,302.79,138.169,304.9,133.148Z" transform="translate(-212.391 -71.441)" fill="#00cabe"/>
          <path id="Path_1951" data-name="Path 1951" d="M234.89,114.511c-8.745,2.3-18.4-1.895-24-8.989s-7.557-16.57-7.126-25.581a39.548,39.548,0,0,1,21.434,12.047A36.92,36.92,0,0,1,234.89,114.511Z" transform="translate(-203.371 -65.192)" fill="#00cabe"/>
          <path id="Path_1952" data-name="Path 1952" d="M241.271,159.067a27.758,27.758,0,0,0-25.248-28.984c-4.221-.379-8.462.213-12.7.585,2.61,8.14,7.232,15.773,13.92,21.1A33.9,33.9,0,0,0,241.271,159.067Z" transform="translate(-203.324 -71.459)" fill="#00cabe"/>
          <path id="Path_1953" data-name="Path 1953" d="M307.051,98.5a28.4,28.4,0,0,0-23.618,7.458,27.621,27.621,0,0,0-8.166,23.493C290.626,126.97,303.774,114.192,307.051,98.5Z" transform="translate(-212.306 -67.478)" fill="#00cabe"/>
          <path id="Path_1954" data-name="Path 1954" d="M256.239,188.725a47.819,47.819,0,0,0-5.671-17.307,81.825,81.825,0,0,0-27.421-30.282" transform="translate(-205.808 -72.859)" fill="none" stroke="#009a90" stroke-miterlimit="10" stroke-width="2"/>
          <path id="Path_1955" data-name="Path 1955" d="M260.192,176.726A83.008,83.008,0,0,1,293.8,108" transform="translate(-210.444 -68.708)" fill="none" stroke="#009a90" stroke-miterlimit="10" stroke-width="2"/>
          <path id="Path_1956" data-name="Path 1956" d="M262.933,157.971c4.231-12.585,17.86-23.054,30.475-23.727" transform="translate(-210.792 -71.995)" fill="none" stroke="#009a90" stroke-miterlimit="10" stroke-width="2"/>
          <path id="Path_1957" data-name="Path 1957" d="M242.456,130.526a37.085,37.085,0,0,0-7.523-15.581,62.516,62.516,0,0,0-11.786-10.372" transform="translate(-205.808 -68.278)" fill="none" stroke="#009a90" stroke-miterlimit="10" stroke-width="2"/>
          <path id="Path_1958" data-name="Path 1958" d="M288.991,154.7c-8.482,1.339-26.282,6.527-30.873,15.893-3.369,6.874-2.152,15.41,1.726,22.777,3.763.39,7.508-.978,10.8-2.85C282.979,183.493,290.325,168.6,288.991,154.7Z" transform="translate(-209.943 -74.558)" fill="#00cabe"/>
          <path id="Path_1959" data-name="Path 1959" d="M252.436,153.566a14.961,14.961,0,0,1-.059-11.981,15.916,15.916,0,0,1,9.192-8.353c.6,3.223,1.194,6.538.569,9.756A14.516,14.516,0,0,1,252.436,153.566Z" transform="translate(-209.317 -71.868)" fill="#00cabe"/>
          <path id="Path_1960" data-name="Path 1960" d="M243.126,133.572a16.617,16.617,0,0,0-8.037-8.7,33.166,33.166,0,0,0-11.6-3.252c2.435,3.337,4.661,6.917,7.863,9.528S239.061,135.252,243.126,133.572Z" transform="translate(-205.85 -70.414)" fill="#00cabe"/>
          <path id="Path_1961" data-name="Path 1961" d="M249.734,172.43c-7.878-6.769-19.705-8.544-29.032-5.093,1.368,5.7,6.971,9.8,12.8,10.407S245.192,175.927,249.734,172.43Z" transform="translate(-205.501 -75.926)" fill="#00cabe"/>
        </g>
        <path id="Path_1962" data-name="Path 1962" d="M248.253,217.776c46.919,1.306,76.2,1.56,123.119,2.865,3.375.094,29.962,2.53,31.225-.6-6.847-2.739-19.091-5.651-26.44-5.034,7.212-2.564,8.626-14.189,2.239-18.407s-16.523,1.646-16.051,9.286a13.637,13.637,0,0,0-6.881-14.9c-2.008-1.017-4.437-1.659-5.581-3.6-1.009-1.709-.658-3.85-.722-5.834-.309-9.565-12.007-15.994-21.073-12.929s-14.511,13.032-14.621,22.6c-2.386-5.4-8.127-15.845-16.129-11.34-5.253,2.957-4.249,10.64-6.033,16.4-2.112,6.819-10.225,13.895-16.585,10.651-8.5-4.332-15.472.229-16.014,5.328-12.068-3.316-26.447,2.767-38.677,5.421C233.061,220.163,238.382,217.5,248.253,217.776Z" transform="translate(-68.111 -76.207)" fill="#fff"/>
        <path id="Path_1963" data-name="Path 1963" d="M141.886,189.069c29.426,0,58.85-.7,88.256-1.753,2.069-.074,4.506-.365,5.51-2.175-1.653-2.461-5.118-2.956-8.037-2.44s-5.694,1.793-8.652,1.994c-4.173.283-3.068-2.575-2.187-3.692,3.256-4.121-1.239-9.572-5.959-9.935-5.17-.4-7.632,5.3-7.632,7.073-1.924-9.412-10.378-13.658-15.12-14.391-8.288-1.281-12.31,2.642-12.79,6.369a4.771,4.771,0,0,1-5.954,3.893,13.8,13.8,0,0,1-4.719-2.393,39.312,39.312,0,0,1-5.322-5.542c-3.634-5.219-12.442-5.554-16.46-.625s-1.92,13.489,3.922,16c-7.241-4.74-13.745-3.836-14.682.335C131.471,184.411,133.894,189.069,141.886,189.069Z" transform="translate(-57.078 -75.467)" fill="#fff"/>
        <g id="Group_1562" data-name="Group 1562" transform="translate(63.171 139.805)">
          <path id="Path_1964" data-name="Path 1964" d="M137.421,335.149l7.068,7.257,28.216-39.8,9.149,8.008,4.236-31.257-28.064,10.18,10.728,9.4Z" transform="translate(-120.931 -229.982)" fill="#ff8961"/>
          <path id="Path_1965" data-name="Path 1965" d="M118.569,303.117l8.593,8.823,44.916-60.764L183.2,260.91l5.151-38-34.119,12.376,13.043,11.43Z" transform="translate(-118.569 -222.909)" fill="#ff8961"/>
        </g>
        <path id="Path_1966" data-name="Path 1966" d="M199.8,349.642c-46.672.711-75.776.69-122.448,1.4-3.357.051-29.87,1.859-31-.746,6.91-2.217,19.19-4.533,26.468-3.963a8.316,8.316,0,0,1-1.507-15.275c6.51-3.445,16.354,1.495,15.586,7.823-1.148-4.765,2.085-10.122,7.418-12.291,2.035-.827,4.474-1.34,5.686-2.939,1.068-1.408.8-3.185.944-4.829.68-7.926,12.554-13.163,21.444-10.55a19.1,19.1,0,0,1,13.647,18.85c2.581-4.455,8.693-13.069,16.468-9.272,5.1,2.493,3.808,8.854,5.356,13.64,1.832,5.669,9.619,11.6,16.064,8.961,8.612-3.524,15.365.312,15.705,4.542,12.12-2.653,26.171,2.5,38.22,4.8C214.8,351.741,209.621,349.493,199.8,349.642Z" transform="translate(-46.35 -93.715)" fill="#fff"/>
        <g id="Group_1563" data-name="Group 1563" transform="translate(50.421 31.347)">
          <path id="Path_1967" data-name="Path 1967" d="M148.256,123.706a19.758,19.758,0,0,0-.293-3.271l4.985-1.62-1.8-5.538-4.982,1.619a19.828,19.828,0,0,0-3.842-5.3l3.074-4.23-4.711-3.423-3.074,4.231a19.64,19.64,0,0,0-6.231-2.012V98.916h-5.823v5.244a19.64,19.64,0,0,0-6.231,2.011l-3.074-4.231-4.711,3.424,3.074,4.229a19.825,19.825,0,0,0-3.842,5.3l-4.982-1.619-1.8,5.538,4.985,1.62a18.418,18.418,0,0,0,0,6.545l-4.986,1.62,1.8,5.538,4.982-1.619a19.829,19.829,0,0,0,3.842,5.3l-3.074,4.231,4.711,3.423,3.075-4.232a19.614,19.614,0,0,0,6.23,2.011V148.5h5.824v-5.244a19.619,19.619,0,0,0,6.231-2.011l3.074,4.232,4.711-3.423-3.074-4.231a19.837,19.837,0,0,0,3.842-5.3l4.982,1.618,1.8-5.538-4.985-1.62A19.761,19.761,0,0,0,148.256,123.706Zm-19.785,8.876a8.875,8.875,0,1,1,8.875-8.876A8.876,8.876,0,0,1,128.471,132.582Z" transform="translate(-103.993 -98.916)" fill="#006eae"/>
        </g>
        <g id="Group_1564" data-name="Group 1564" transform="translate(305.679 163.91)">
          <path id="Path_1968" data-name="Path 1968" d="M420.284,264.172a11,11,0,0,0-.162-1.808l2.756-.9-1-3.062-2.754.9A10.949,10.949,0,0,0,417,256.37l1.7-2.339-2.6-1.892-1.7,2.339a10.84,10.84,0,0,0-3.445-1.112v-2.9h-3.219v2.9a10.849,10.849,0,0,0-3.445,1.112l-1.7-2.338-2.6,1.892,1.7,2.338a10.952,10.952,0,0,0-2.123,2.931l-2.755-.895-.994,3.062,2.756.9a10.179,10.179,0,0,0,0,3.618l-2.756.9.994,3.062,2.754-.895a10.98,10.98,0,0,0,2.124,2.932l-1.7,2.339,2.6,1.892,1.7-2.339a10.878,10.878,0,0,0,3.445,1.112v2.9h3.22v-2.9a10.878,10.878,0,0,0,3.445-1.112l1.7,2.339,2.6-1.892-1.7-2.339a10.939,10.939,0,0,0,2.124-2.932l2.754.9,1-3.062-2.756-.9A11,11,0,0,0,420.284,264.172Zm-10.938,4.907a4.907,4.907,0,1,1,4.907-4.907A4.907,4.907,0,0,1,409.346,269.079Z" transform="translate(-395.814 -250.467)" fill="#006eae"/>
        </g>
        <g id="Group_1565" data-name="Group 1565" transform="translate(126.736 227.441)">
          <path id="Path_1969" data-name="Path 1969" d="M215.709,336.8a10.9,10.9,0,0,0-.162-1.808l2.756-.9-.995-3.062-2.754.895A10.98,10.98,0,0,0,212.43,329l1.7-2.339-2.6-1.892-1.7,2.339A10.847,10.847,0,0,0,206.381,326v-2.9h-3.22V326a10.88,10.88,0,0,0-3.445,1.112l-1.7-2.338-2.6,1.892,1.7,2.338a10.942,10.942,0,0,0-2.124,2.931l-2.754-.895-1,3.062,2.756.9a10.194,10.194,0,0,0,0,3.618l-2.756.9,1,3.061,2.754-.895a10.925,10.925,0,0,0,2.124,2.932l-1.7,2.339,2.6,1.892,1.7-2.339a10.839,10.839,0,0,0,3.445,1.112v2.9h3.219v-2.9a10.845,10.845,0,0,0,3.445-1.112l1.7,2.339,2.6-1.892-1.7-2.339a10.962,10.962,0,0,0,2.124-2.932l2.754.9.995-3.062-2.756-.895A10.918,10.918,0,0,0,215.709,336.8Zm-10.937,4.907a4.907,4.907,0,1,1,4.906-4.907A4.907,4.907,0,0,1,204.772,341.71Z" transform="translate(-191.239 -323.098)" fill="#006eae"/>
        </g>
        <g id="Group_1572" data-name="Group 1572" transform="translate(34.567 48.643)">
          <g id="Group_1567" data-name="Group 1567" transform="translate(40.331)">
            <ellipse id="Ellipse_182" data-name="Ellipse 182" cx="25.709" cy="27.68" rx="25.709" ry="27.68" transform="translate(0 2.183)" fill="#006eae"/>
            <ellipse id="Ellipse_183" data-name="Ellipse 183" cx="25.709" cy="27.681" rx="25.709" ry="27.681" fill="#009a90"/>
            <g id="Group_1566" data-name="Group 1566" transform="translate(9.252 8.676)">
              <ellipse id="Ellipse_184" data-name="Ellipse 184" cx="9.883" cy="10.641" rx="9.883" ry="10.641" transform="translate(6.087)" fill="#fff"/>
              <path id="Path_1970" data-name="Path 1970" d="M159.475,155.693c-6.661-.087-13.1,4.169-16.921,10.892a20.875,20.875,0,0,0,32.914-.489C172.227,160.037,166.008,155.779,159.475,155.693Z" transform="translate(-142.554 -132.001)" fill="#fff"/>
            </g>
          </g>
          <g id="Group_1569" data-name="Group 1569" transform="translate(230.211 134.897)">
            <circle id="Ellipse_185" data-name="Ellipse 185" cx="32.74" cy="32.74" r="32.74" transform="translate(5.1 72.336) rotate(-80.89)" fill="#006eae"/>
            <circle id="Ellipse_186" data-name="Ellipse 186" cx="32.74" cy="32.74" r="32.74" transform="translate(0 24.496) rotate(-21.968)" fill="#f7b900"/>
            <g id="Group_1568" data-name="Group 1568" transform="translate(21.653 20.133)">
              <circle id="Ellipse_187" data-name="Ellipse 187" cx="12.586" cy="12.586" r="12.586" transform="translate(7.751)" fill="#fff"/>
              <path id="Path_1971" data-name="Path 1971" d="M395.357,327.961c-8.483-.1-16.681,4.931-21.548,12.883a27.867,27.867,0,0,0,41.915-.578C411.6,333.1,403.678,328.061,395.357,327.961Z" transform="translate(-373.809 -299.938)" fill="#fff"/>
            </g>
          </g>
          <g id="Group_1571" data-name="Group 1571" transform="translate(3.582 191.067)">
            <circle id="Ellipse_188" data-name="Ellipse 188" cx="27.588" cy="27.588" r="27.588" transform="matrix(0.235, -0.972, 0.972, 0.235, 0, 55.802)" fill="#006eae"/>
            <circle id="Ellipse_189" data-name="Ellipse 189" cx="27.588" cy="27.588" r="27.588" transform="matrix(0.235, -0.972, 0.972, 0.235, 0, 53.626)" fill="#00c5e1"/>
            <g id="Group_1570" data-name="Group 1570" transform="translate(15.646 12.859)">
              <circle id="Ellipse_190" data-name="Ellipse 190" cx="10.606" cy="10.606" r="10.606" transform="translate(5.026 3.264) rotate(-8.852)" fill="#fff"/>
              <path id="Path_1972" data-name="Path 1972" d="M126.008,380.541c-7.148-.087-14.056,4.155-18.157,10.855a23.482,23.482,0,0,0,35.319-.487A20.655,20.655,0,0,0,126.008,380.541Z" transform="translate(-107.851 -355.422)" fill="#fff"/>
            </g>
          </g>
          <path id="Path_1973" data-name="Path 1973" d="M100.393,326.478c-26.435-47.424-15.5-120.761,22.364-158.622" transform="translate(-85.869 -124.849)" fill="none" stroke="#35494f" stroke-miterlimit="10" stroke-width="2" stroke-dasharray="4 4 4 4 4 4"/>
          <path id="Path_1974" data-name="Path 1974" d="M200.723,274.017c30.845,36.266,79.3,49.946,127.7,42.989" transform="translate(-100.259 -138.15)" fill="none" stroke="#35494f" stroke-miterlimit="10" stroke-width="2" stroke-dasharray="4 4 4 4 4 4"/>
          <path id="Path_1975" data-name="Path 1975" d="M164.913,188.346a166.16,166.16,0,0,0,7,31.071" transform="translate(-95.772 -127.416)" fill="none" stroke="#35494f" stroke-miterlimit="10" stroke-width="2" stroke-dasharray="4 4 4 4 4 4"/>
          <path id="Path_1976" data-name="Path 1976" d="M150.1,404.219S259,487.994,361.276,369.252" transform="translate(-93.916 -150.082)" fill="none" stroke="#35494f" stroke-miterlimit="10" stroke-width="2" stroke-dasharray="4 4 4 4 4 4"/>
        </g>
        <path id="Path_1977" data-name="Path 1977" d="M394.43,369.914c-7.258-11.426-18.98-2.065-.317,18.79,7.29-6.523,13.5-18.079,8.947-22.322C400.3,363.809,396.914,366.486,394.43,369.914Z" transform="translate(-88.664 -100.906)" fill="#ff8961"/>
        <path id="Path_1978" data-name="Path 1978" d="M131.064,189.806c-4.79-7.54-12.525-1.363-.209,12.4,4.811-4.3,8.908-11.931,5.9-14.731C134.938,185.778,132.7,187.544,131.064,189.806Z" transform="translate(-56.107 -78.55)" fill="#ff8961"/>
        <path id="Path_1979" data-name="Path 1979" d="M84.019,352.324c-4.79-7.54-12.525-1.363-.209,12.4,4.811-4.3,8.908-11.931,5.905-14.731C87.893,348.295,85.658,350.062,84.019,352.324Z" transform="translate(-50.213 -98.912)" fill="#ff8961"/>
        <g id="Group_1577" data-name="Group 1577" transform="translate(23.905 126.115)">
          <g id="Group_1575" data-name="Group 1575">
            <g id="Group_1573" data-name="Group 1573">
              <path id="Path_1980" data-name="Path 1980" d="M127.791,234.314a27.057,27.057,0,1,0-42.279,22.369,8.214,8.214,0,0,1,3.532,6.8v.638a8.318,8.318,0,0,0,8.318,8.319h6.745a8.318,8.318,0,0,0,8.318-8.319v-.637a8.458,8.458,0,0,1,3.713-6.928A27.024,27.024,0,0,0,127.791,234.314Z" transform="translate(-73.68 -207.258)" fill="#fff"/>
            </g>
            <g id="Group_1574" data-name="Group 1574" transform="translate(5.528 9.497)">
              <path id="Path_1981" data-name="Path 1981" d="M123.055,239.643a21.529,21.529,0,1,0-33.64,17.8,6.535,6.535,0,0,1,2.81,5.412v.508a6.619,6.619,0,0,0,6.619,6.619h5.366a6.619,6.619,0,0,0,6.619-6.619v-.507a6.728,6.728,0,0,1,2.955-5.511A21.505,21.505,0,0,0,123.055,239.643Z" transform="translate(-79.999 -218.115)" fill="#f7b900"/>
            </g>
            <path id="Rectangle_660" data-name="Rectangle 660" d="M2.551,0h15.1A2.552,2.552,0,0,1,20.2,2.552V3.5a2.551,2.551,0,0,1-2.551,2.551H2.551A2.551,2.551,0,0,1,0,3.5V2.551A2.551,2.551,0,0,1,2.551,0Z" transform="translate(16.956 68.997)" fill="#009a90"/>
            <path id="Rectangle_661" data-name="Rectangle 661" d="M2.551,0H20.043a2.552,2.552,0,0,1,2.552,2.552V3.5a2.552,2.552,0,0,1-2.552,2.552H2.551A2.551,2.551,0,0,1,0,3.5V2.551A2.551,2.551,0,0,1,2.551,0Z" transform="translate(15.758 62.946)" fill="#009a90"/>
            <path id="Path_1982" data-name="Path 1982" d="M96.826,292.361l1.213,2.943,10.447.3,1.959-3.423Z" transform="translate(-76.58 -217.898)" fill="#006eae"/>
          </g>
          <g id="Group_1576" data-name="Group 1576" transform="translate(18.503 19.133)">
            <path id="Path_1983" data-name="Path 1983" d="M101.933,260.3a14.969,14.969,0,0,1-6.152-17.876c2.377-6.076,8.5-10.612,15.482-13.289,2.56,5.5,3.019,14.789,1.358,20.3S107.189,256.649,101.933,260.3Z" transform="translate(-94.833 -229.132)" fill="#009a90"/>
            <path id="Path_1984" data-name="Path 1984" d="M103.148,257.763c0-7.338,3.666-18.913,8.209-25.689" transform="translate(-95.875 -229.501)" fill="none" stroke="#b5e6b8" stroke-miterlimit="10" stroke-width="1"/>
          </g>
        </g>
        <path id="Path_1985" data-name="Path 1985" d="M135.542,149.185" transform="translate(-57.525 -73.867)" fill="none" stroke="#b5e6b8" stroke-miterlimit="10" stroke-width="1"/>
        <g id="Group_1578" data-name="Group 1578" transform="translate(227.231 56.138)">
          <path id="Path_1986" data-name="Path 1986" d="M306.129,156.085c0-8.327,6.494-20.221,11.132-28.827,5.3,7.306,15.715,20.5,15.715,28.827s-6.01,15.077-13.423,15.077S306.129,164.412,306.129,156.085Z" transform="translate(-306.129 -127.258)" fill="#00c5e1"/>
          <path id="Path_1987" data-name="Path 1987" d="M331.949,162.727c.378-2.573-2.008-4.719-4.179-3.652l-.036.017a8.533,8.533,0,0,0-4.309,5.52,16.333,16.333,0,0,0,.237,7.374,12.861,12.861,0,0,0,6.925-5.4A10.544,10.544,0,0,0,331.949,162.727Z" transform="translate(-308.255 -131.209)" fill="#fff"/>
        </g>
        <g id="Group_1579" data-name="Group 1579" transform="translate(252.444 27.173)">
          <path id="Path_1988" data-name="Path 1988" d="M334.953,113.5c0-5.59,4.359-13.574,7.473-19.352,3.558,4.905,10.55,13.762,10.55,19.352s-4.035,10.123-9.011,10.123S334.953,119.086,334.953,113.5Z" transform="translate(-334.953 -94.144)" fill="#00c5e1"/>
          <path id="Path_1989" data-name="Path 1989" d="M352.543,116.869c.262-1.784-1.392-3.271-2.9-2.531l-.024.012a5.913,5.913,0,0,0-2.987,3.826,11.329,11.329,0,0,0,.164,5.11,8.916,8.916,0,0,0,4.8-3.742A7.317,7.317,0,0,0,352.543,116.869Z" transform="translate(-336.388 -96.65)" fill="#fff"/>
        </g>
        <g id="Group_1580" data-name="Group 1580" transform="translate(209.321 3.235)">
          <path id="Path_1990" data-name="Path 1990" d="M285.653,82.494c0-4.54,3.541-11.024,6.07-15.717,2.89,3.983,8.568,11.177,8.568,15.717s-3.277,8.221-7.319,8.221S285.653,87.034,285.653,82.494Z" transform="translate(-285.653 -66.777)" fill="#00c5e1"/>
          <path id="Path_1991" data-name="Path 1991" d="M299.7,85.172a1.642,1.642,0,0,0-2.181-1.906l-.018.01a4.454,4.454,0,0,0-2.249,2.88A8.523,8.523,0,0,0,295.374,90a6.714,6.714,0,0,0,3.613-2.818A5.485,5.485,0,0,0,299.7,85.172Z" transform="translate(-286.834 -68.825)" fill="#fff"/>
        </g>
        <g id="Group_1581" data-name="Group 1581" transform="translate(40.525 7.144)">
          <path id="Path_1992" data-name="Path 1992" d="M172.469,98.143a4,4,0,1,1,4,4A4,4,0,0,1,172.469,98.143Z" transform="translate(-102.677 -74.115)" fill="#ff8961"/>
          <path id="Path_1993" data-name="Path 1993" d="M150.1,77.862a6.148,6.148,0,1,1,6.148,6.148A6.148,6.148,0,0,1,150.1,77.862Z" transform="translate(-99.874 -71.305)" fill="#ff8961"/>
          <path id="Path_1994" data-name="Path 1994" d="M177.866,74.525a3.278,3.278,0,1,1,3.278,3.278A3.279,3.279,0,0,1,177.866,74.525Z" transform="translate(-103.353 -71.246)" fill="#00c5e1"/>
          <path id="Path_1995" data-name="Path 1995" d="M92.68,172.053a4.2,4.2,0,1,1,4.2,4.2A4.2,4.2,0,0,1,92.68,172.053Z" transform="translate(-92.68 -83.35)" fill="#006eae"/>
          <path id="Path_1996" data-name="Path 1996" d="M369.011,118.088a4.2,4.2,0,1,1,4.2,4.2A4.2,4.2,0,0,1,369.011,118.088Z" transform="translate(-127.302 -76.589)" fill="#006eae"/>
          <circle id="Ellipse_191" data-name="Ellipse 191" cx="2.051" cy="2.051" r="2.051" transform="translate(37.492 307.841)" fill="#ff8961"/>
          <circle id="Ellipse_192" data-name="Ellipse 192" cx="2.051" cy="2.051" r="2.051" transform="translate(232.072 8.283)" fill="#ff8961"/>
          <circle id="Ellipse_193" data-name="Ellipse 193" cx="5.218" cy="5.218" r="5.218" transform="translate(10.302 302.623)" fill="#00c5e1"/>
          <path id="Path_1997" data-name="Path 1997" d="M407.555,181.434a3.983,3.983,0,1,1,3.983,3.983A3.982,3.982,0,0,1,407.555,181.434Z" transform="translate(-132.131 -84.552)" fill="#00c5e1"/>
          <path id="Path_1998" data-name="Path 1998" d="M374.471,412.721a3.494,3.494,0,1,1,3.494,3.494A3.493,3.493,0,0,1,374.471,412.721Z" transform="translate(-127.986 -113.592)" fill="#006eae"/>
          <path id="Path_1999" data-name="Path 1999" d="M320.394,86.554a3.494,3.494,0,1,1,3.495,3.494A3.495,3.495,0,0,1,320.394,86.554Z" transform="translate(-121.21 -72.726)" fill="#006eae"/>
        </g>
      </g>
    </g>
  </g>
</svg>
